<?xml version="1.0" encoding="iso-8859-1"?>
<!-- Generator: Adobe Illustrator 19.0.0, SVG Export Plug-In . SVG Version: 6.00 Build 0)  -->
<svg version="1.1" id="Layer_1" xmlns="http://www.w3.org/2000/svg" xmlns:xlink="http://www.w3.org/1999/xlink" x="0px" y="0px"
	 viewBox="0 0 512 512" style="enable-background:new 0 0 512 512;" xml:space="preserve" fill="#efb311">
<g>
	<g>
		<path d="M199.211,66.477h-5.093c-5.63-8.061-14.967-13.053-24.996-13.053h-29.959l-33.492-47.54C103.19,2.366,98.632,0,94.324,0
			H81.991c-6.05,0-10.971,4.922-10.971,10.971v42.452h-9.26l-6.705-25.849c-1.337-5.16-6.177-8.904-11.507-8.904H26.27
			c-6.049,0-10.971,4.921-10.971,10.971v29.822C7.872,65.009,3.056,73.854,3.056,83.802c0,16.752,13.656,30.38,30.441,30.38h37.525
			v39.961c0,6.05,4.922,10.971,10.971,10.971h12.334c4.305,0,8.865-2.365,11.345-5.885l31.739-45.047h16.189
			c4.328,0,7.837-3.509,7.837-7.837c0-4.328-3.509-7.837-7.837-7.837h-5.145l3.158-4.483c2.185-3.1,2.523-6.814,0.905-9.933
			c-1.618-3.119-4.848-4.981-8.64-4.981H81.994c-6.049,0-10.971,4.922-10.971,10.971v8.425H33.497
			c-8.143,0-14.768-6.598-14.768-14.707c0-8.108,6.625-14.705,14.768-14.705h135.627c5.725,0,10.985,3.347,13.401,8.527
			c1.286,2.761,4.056,4.525,7.102,4.525h9.586c4.535,0,8.224,3.67,8.224,8.18c0,4.51-3.69,8.179-8.224,8.179h-15.31
			c-4.328,0-7.837,3.509-7.837,7.837s3.509,7.837,7.837,7.837h15.309c13.177,0,23.898-10.701,23.898-23.853
			C223.109,77.178,212.389,66.477,199.211,66.477z M86.696,94.787h45.21l-38.509,54.654h-6.701V94.787z M33.497,53.424
			c-0.851,0-1.692,0.044-2.524,0.113V34.344h9.646l4.949,19.08H33.497z M86.693,53.424v-37.75h6.702l26.596,37.75H86.693z"/>
	</g>
</g>
<g>
	<g>
		<path d="M303.411,100.928c-113.332,0-205.535,92.203-205.535,205.536S190.079,512,303.411,512
			c46.932,0,91.118-15.403,127.784-44.542c3.389-2.693,3.952-7.622,1.259-11.011c-2.692-3.389-7.623-3.951-11.01-1.259
			c-10.604,8.427-21.889,15.61-33.721,21.502c8.049-7.506,15.622-16.14,22.612-25.855c10.201-14.18,18.712-30.062,25.412-47.169
			c8.311,3.031,16.453,6.357,24.404,9.969c-5.02,7.328-10.573,14.339-16.647,20.975c-2.923,3.193-2.703,8.15,0.49,11.072
			c3.193,2.923,8.151,2.703,11.072-0.49c34.746-37.963,53.88-87.232,53.88-138.729C508.945,193.131,416.743,100.928,303.411,100.928
			z M267.438,123.519c-7.481,10.262-14.253,23.878-20.062,40.574c-6.298,18.103-11.249,39.004-14.717,61.703
			c-15.959-2.865-31.573-6.702-46.703-11.478C203.259,170.464,232.504,137.249,267.438,123.519z M230.552,241.34
			c-2.179,18.295-3.434,37.546-3.697,57.287h-57.7c0.713-24.672,4.768-48.145,11.551-69.534
			C196.852,234.214,213.517,238.311,230.552,241.34z M218.778,136.543c-7.929,7.434-15.394,15.964-22.29,25.55
			c-10.201,14.18-18.713,30.062-25.413,47.169c-8.283-3.021-16.399-6.334-24.324-9.933
			C164.975,172.762,189.772,151.049,218.778,136.543z M138.355,212.72c8.937,4.122,18.105,7.898,27.478,11.312
			c-7.432,23.322-11.65,48.54-12.357,74.595h-39.752C114.995,267.489,123.794,238.261,138.355,212.72z M113.724,314.3h39.752
			c0.707,26.056,4.925,51.273,12.357,74.595c-9.373,3.414-18.541,7.189-27.478,11.312
			C123.794,374.667,114.995,345.438,113.724,314.3z M146.751,413.599c7.926-3.599,16.041-6.912,24.324-9.933
			c6.7,17.106,15.212,32.987,25.413,47.168c6.896,9.586,14.362,18.115,22.291,25.551
			C189.773,461.878,164.975,440.164,146.751,413.599z M185.956,398.609c15.14-4.779,30.764-8.618,46.733-11.483
			c4.687,30.502,12.029,57.725,21.308,78.523c4.346,9.742,8.829,17.519,13.315,23.711
			C232.433,475.599,203.238,442.411,185.956,398.609z M295.574,494.492c-9.459-4.382-18.915-16.512-27.265-35.229
			c-8.741-19.593-15.682-45.453-20.146-74.592c15.568-2.154,31.413-3.395,47.41-3.701V494.492z M295.574,365.293
			c-16.701,0.308-33.251,1.598-49.516,3.847c-0.488-4.121-0.931-8.291-1.321-12.507c-0.398-4.31-4.212-7.481-8.525-7.082
			c-4.31,0.398-7.48,4.215-7.082,8.525c0.421,4.553,0.903,9.056,1.437,13.508c-17.04,3.029-33.712,7.127-49.86,12.25
			c-6.782-21.389-10.839-44.863-11.551-69.535h57.71c0.053,4.011,0.134,8.016,0.27,11.976c0.147,4.326,3.777,7.702,8.1,7.565
			c4.326-0.147,7.712-3.774,7.565-8.099c-0.13-3.781-0.208-7.608-0.26-11.441h53.035V365.293z M295.574,298.627h-53.043
			c0.263-19.448,1.496-37.81,3.512-54.843c16.27,2.251,32.825,3.541,49.531,3.85V298.627z M295.574,231.958
			c-16.002-0.306-31.852-1.547-47.426-3.703c9.218-60.099,28.343-100.82,47.426-109.781V231.958z M493.097,298.627h-39.751
			c-0.707-26.055-4.926-51.272-12.357-74.595c9.373-3.414,18.54-7.189,27.477-11.311
			C483.029,238.261,491.827,267.489,493.097,298.627z M460.071,199.328c-7.926,3.599-16.041,6.912-24.324,9.933
			c-6.699-17.106-15.212-32.988-25.412-47.169c-6.895-9.585-14.362-18.114-22.291-25.549
			C417.051,151.05,441.846,172.763,460.071,199.328z M420.866,214.318c-15.13,4.776-30.745,8.614-46.705,11.478
			c-3.468-22.698-8.42-43.6-14.717-61.703c-5.809-16.696-12.581-30.313-20.062-40.576
			C374.316,137.248,403.562,170.463,420.866,214.318z M311.248,314.3h53.042c-0.263,19.449-1.497,37.811-3.512,54.842
			c-16.27-2.251-32.824-3.541-49.53-3.85V314.3z M311.247,118.474c19.083,8.962,38.206,49.683,47.425,109.781
			c-15.573,2.156-31.422,3.397-47.425,3.703V118.474z M311.246,247.635h0.001c16.706-0.309,33.26-1.599,49.53-3.849
			c2.016,17.032,3.249,35.394,3.512,54.841h-53.043V247.635z M311.247,494.453V380.97c16.002,0.306,31.852,1.547,47.425,3.703
			C349.454,444.771,330.33,485.492,311.247,494.453z M339.381,489.408c7.481-10.262,14.254-23.879,20.062-40.576
			c6.298-18.103,11.249-39.005,14.717-61.703c15.96,2.865,31.575,6.703,46.705,11.478
			C403.562,442.465,374.316,475.679,339.381,489.408z M428.409,314.3h9.258c-0.714,24.672-4.769,48.146-11.551,69.535
			c-16.146-5.122-32.812-9.219-49.848-12.248c2.179-18.294,3.434-37.546,3.697-57.287h15.008c4.329,0,7.837-3.509,7.837-7.837
			c0-4.328-3.508-7.837-7.837-7.837h-15.007c-0.263-19.741-1.517-38.991-3.697-57.287c17.036-3.029,33.702-7.126,49.848-12.248
			c6.782,21.389,10.838,44.863,11.551,69.534h-9.259c-4.329,0-7.837,3.509-7.837,7.837C420.572,310.791,424.08,314.3,428.409,314.3z
			 M440.989,388.895c7.431-23.323,11.651-48.541,12.357-74.596h39.756c-1.246,30.432-9.729,59.817-24.581,85.932
			C459.568,396.101,450.381,392.316,440.989,388.895z"/>
	</g>
</g>
<g>
</g>
<g>
</g>
<g>
</g>
<g>
</g>
<g>
</g>
<g>
</g>
<g>
</g>
<g>
</g>
<g>
</g>
<g>
</g>
<g>
</g>
<g>
</g>
<g>
</g>
<g>
</g>
<g>
</g>
</svg>
